# xmcd
#
# Track frame offsets:
#	150
#	22680
#	42275
#	66557
#	89760
#	109575
#	123945
#	147842
#	163390
#	183940
#	198630
#	215510
# Disc length: 3161 seconds
# Revision: 2
# Processed by: cddbd v1.5.1PL0 Copyright (c) Steve Scherf et al.
#
# Submitted via: libkcddb 0.10
#
DISCID=b00c570c
DTITLE=Osibisa - Greatest Hits
DYEAR=1900
DGENRE=Unknown
TTITLE0=Sunshine day
TTITLE1=Welcome home
TTITLE2=Densu
TTITLE3=Chobio (Heaven Ho)
TTITLE4=Do it
TTITLE5=Right now
TTITLE6=Seaside Meditation
TTITLE7=Uhuru
TTITLE8=Kolomashi
TTITLE9=The coffee song
TTITLE10=The warrior
TTITLE11=Flying bird
EXTD=
EXTT0=
EXTT1=
EXTT2=
EXTT3=
EXTT4=
EXTT5=
EXTT6=
EXTT7=
EXTT8=
EXTT9=
EXTT10=
EXTT11=
PLAYORDER=
